<svg id="visual" viewBox="0 0 960 540" width="960" height="540" xmlns="http://www.w3.org/2000/svg"
        xmlns:xlink="http://www.w3.org/1999/xlink" version="1.1">
        <rect x="0" y="0" width="960" height="540" fill="#931C1C" />
        <path
            d="M0 365L137 321L274 398L411 345L549 383L686 348L823 382L960 347L960 541L823 541L686 541L549 541L411 541L274 541L137 541L0 541Z"
            fill="#f5730a" />
        <path
            d="M0 387L137 381L274 354L411 381L549 419L686 375L823 386L960 377L960 541L823 541L686 541L549 541L411 541L274 541L137 541L0 541Z"
            fill="#da5b09" />
        <path
            d="M0 451L137 454L274 435L411 460L549 430L686 428L823 402L960 457L960 541L823 541L686 541L549 541L411 541L274 541L137 541L0 541Z"
            fill="#be4407" />
        <path
            d="M0 471L137 487L274 450L411 470L549 478L686 488L823 442L960 471L960 541L823 541L686 541L549 541L411 541L274 541L137 541L0 541Z"
            fill="#a32d04" />
        <path
            d="M0 502L137 476L274 510L411 482L549 481L686 473L823 479L960 506L960 541L823 541L686 541L549 541L411 541L274 541L137 541L0 541Z"
            fill="#871400" />
    </svg>